<svg width="40" height="18" viewBox="0 0 40 18" fill="none" xmlns="http://www.w3.org/2000/svg">
<path fill-rule="evenodd" clip-rule="evenodd" d="M5.3405 3.82684C6.09058 3.88946 6.84066 3.45116 7.30946 2.89546C7.77044 2.32411 8.07516 1.55709 7.99703 0.774414C7.3329 0.805721 6.5125 1.21271 6.0437 1.78406C5.61397 2.27715 5.24674 3.07548 5.3405 3.82684ZM14.2639 13.9063V1.70443H18.8347C21.1943 1.70443 22.8429 3.33239 22.8429 5.71172C22.8429 8.09105 21.163 9.73466 18.7722 9.73466H16.1547V13.9063H14.2639ZM7.98941 3.97459C7.32861 3.93649 6.72565 4.17366 6.23863 4.36523C5.92522 4.48851 5.65981 4.5929 5.4579 4.5929C5.23131 4.5929 4.95495 4.48292 4.64466 4.35945C4.23808 4.19765 3.77325 4.01267 3.2858 4.02155C2.16849 4.0372 1.12932 4.67117 0.558952 5.68082C-0.613045 7.70011 0.254233 10.6899 1.38716 12.3335C1.94191 13.1475 2.60604 14.0398 3.48113 14.0085C3.86612 13.9939 4.14306 13.8762 4.42966 13.7544C4.75962 13.6141 5.10239 13.4684 5.6376 13.4684C6.15426 13.4684 6.48204 13.6103 6.79669 13.7465C7.09588 13.8761 7.38319 14.0004 7.80971 13.9928C8.71605 13.9771 9.28642 13.1788 9.84117 12.3648C10.4398 11.4912 10.7029 10.6386 10.7428 10.5092L10.7475 10.4943C10.7466 10.4933 10.7392 10.4899 10.7261 10.4839C10.526 10.3921 8.99637 9.69069 8.9817 7.80969C8.96697 6.23086 10.195 5.43093 10.3883 5.30501C10.4 5.29734 10.408 5.29217 10.4115 5.28948C9.63021 4.13112 8.41133 4.0059 7.98941 3.97459ZM26.2969 14.0011C27.4845 14.0011 28.5862 13.3985 29.0862 12.4436H29.1253V13.9072H30.8755V7.83366C30.8755 6.07265 29.4691 4.93778 27.3048 4.93778C25.2967 4.93778 23.8122 6.0883 23.7575 7.6693H25.4608C25.6015 6.91794 26.2969 6.42485 27.2501 6.42485C28.4064 6.42485 29.055 6.9649 29.055 7.95889V8.63199L26.6953 8.77287C24.4998 8.90593 23.3122 9.806 23.3122 11.3713C23.3122 12.9523 24.5389 14.0011 26.2969 14.0011ZM26.8041 12.5534C25.7962 12.5534 25.1555 12.0681 25.1555 11.3246C25.1555 10.5575 25.7727 10.1114 26.9525 10.041L29.0543 9.90792V10.5967C29.0543 11.7394 28.0855 12.5534 26.8041 12.5534ZM36.6804 14.3843C35.9225 16.521 35.0552 17.2254 33.2113 17.2254C33.0706 17.2254 32.6018 17.2097 32.4924 17.1784V15.7148C32.6096 15.7305 32.8987 15.7461 33.0472 15.7461C33.8832 15.7461 34.352 15.3939 34.6411 14.4782L34.813 13.9381L31.6095 5.0548H33.5863L35.8131 12.2632H35.8521L38.0789 5.0548H40.001L36.6804 14.3843ZM16.1548 3.30293H18.3348C19.9755 3.30293 20.9131 4.17952 20.9131 5.72139C20.9131 7.26325 19.9755 8.14768 18.3269 8.14768H16.1548V3.30293Z" fill="white"/>
</svg>
